<svg width="27" height="28" viewBox="0 0 27 28" xmlns="http://www.w3.org/2000/svg">
<path d="M21.6668 22C22.3741 22 23.0524 22.2809 23.5525 22.781C24.0525 23.2811 24.3335 23.9594 24.3335 24.6666C24.3335 25.3739 24.0525 26.0521 23.5525 26.5522C23.0524 27.0523 22.3741 27.3333 21.6668 27.3333C20.9596 27.3333 20.2813 27.0523 19.7812 26.5522C19.2811 26.0521 19.0002 25.3739 19.0002 24.6666C19.0002 23.1866 20.1868 22 21.6668 22ZM0.333496 0.666626H4.6935L5.94683 3.33329H25.6668C26.0205 3.33329 26.3596 3.47377 26.6096 3.72382C26.8597 3.97387 27.0002 4.313 27.0002 4.66663C27.0002 4.89329 26.9335 5.11996 26.8402 5.33329L22.0668 13.96C21.6135 14.7733 20.7335 15.3333 19.7335 15.3333H9.80016L8.60016 17.5066L8.56016 17.6666C8.56016 17.755 8.59528 17.8398 8.65779 17.9023C8.72031 17.9648 8.80509 18 8.8935 18H24.3335V20.6666H8.3335C7.62625 20.6666 6.94798 20.3857 6.44788 19.8856C5.94778 19.3855 5.66683 18.7072 5.66683 18C5.66683 17.5333 5.78683 17.0933 5.98683 16.72L7.80016 13.4533L3.00016 3.33329H0.333496V0.666626ZM8.3335 22C9.04074 22 9.71902 22.2809 10.2191 22.781C10.7192 23.2811 11.0002 23.9594 11.0002 24.6666C11.0002 25.3739 10.7192 26.0521 10.2191 26.5522C9.71902 27.0523 9.04074 27.3333 8.3335 27.3333C7.62625 27.3333 6.94798 27.0523 6.44788 26.5522C5.94778 26.0521 5.66683 25.3739 5.66683 24.6666C5.66683 23.1866 6.8535 22 8.3335 22ZM20.3335 12.6666L24.0402 5.99996H7.18683L10.3335 12.6666H20.3335Z"/>
</svg>
