<svg width="64" height="64" viewBox="0 0 64 64" fill="none" xmlns="http://www.w3.org/2000/svg">
<g clip-path="url(#clip0_151_4424)">
<path d="M61.8081 30.8102H59.1753L55.4153 19.4591C55.1177 18.5622 54.2797 17.9563 53.3348 17.9563H46.9657V7.48909C46.9657 6.27893 45.9842 5.29761 44.7738 5.29761H2.19192C0.981536 5.29761 0 6.27893 0 7.48909V45.8547C0 47.0651 0.981536 48.0464 2.19192 48.0464H4.31014C4.27588 48.377 4.25799 48.7119 4.25799 49.0517C4.25799 54.3731 8.58429 58.7026 13.9023 58.7026C19.2196 58.7026 23.545 54.3731 23.545 49.0517C23.545 48.7119 23.5271 48.377 23.4929 48.0464H42.6344C42.6004 48.377 42.5823 48.7119 42.5823 49.0517C42.5823 54.3731 46.9086 58.7026 52.2272 58.7026C57.5445 58.7026 61.8706 54.3731 61.8706 49.0517C61.8706 48.7116 61.8527 48.3768 61.8182 48.046C63.0239 48.0406 64.0002 47.0619 64.0002 45.8547V33.0019C64 31.792 63.0185 30.8102 61.8081 30.8102ZM51.7516 22.3399L54.5572 30.8104H46.9657V22.3399H51.7516ZM13.9023 54.319C11.0016 54.319 8.64161 51.956 8.64161 49.0517C8.64161 46.1469 11.0016 43.7841 13.9023 43.7841C16.8023 43.7841 19.1616 46.1469 19.1616 49.0517C19.1616 51.956 16.8023 54.319 13.9023 54.319ZM42.5821 43.6628H21.8983C20.164 41.0932 17.227 39.4001 13.9023 39.4001C10.5767 39.4001 7.63917 41.0932 5.90473 43.6628H4.38384V9.68122H42.5821V43.6628ZM52.227 54.319C49.3257 54.319 46.9657 51.956 46.9657 49.0517C46.9657 46.1469 49.3257 43.7841 52.227 43.7841C55.1272 43.7841 57.487 46.1469 57.487 49.0517C57.487 51.956 55.1272 54.319 52.227 54.319ZM52.227 39.4001C50.2868 39.4001 48.4803 39.9787 46.9657 40.9686V35.1938H57.5924H59.6162V42.8588C57.8458 40.7464 55.1908 39.4001 52.227 39.4001Z" fill="#4E22CB"/>
</g>
<defs>
<clipPath id="clip0_151_4424">
<rect width="64" height="64" fill="white"/>
</clipPath>
</defs>
</svg>
