<svg width="64" height="64" viewBox="0 0 64 64" fill="none" xmlns="http://www.w3.org/2000/svg">
<path fill-rule="evenodd" clip-rule="evenodd" d="M11.9837 4.70587H1.88232V0.941162H11.9837C14.1278 0.941162 15.866 2.67935 15.866 4.82352V40.0823H19.5706V24.2204C19.5706 22.0762 21.3087 20.338 23.4529 20.338H23.7973V7.31326C23.7973 5.1691 25.5355 3.43091 27.6797 3.43091H33.8437H41.5156H47.1875C49.3317 3.43091 51.0699 5.1691 51.0699 7.31326V20.338H51.1248C53.269 20.338 55.0072 22.0762 55.0072 24.2204V40.0823H59.6676H61.55V41.9647V49.955V51.8374H59.6676H56.3066C56.6634 52.7225 56.86 53.6898 56.86 54.703C56.86 58.9403 53.4249 62.3754 49.1875 62.3754C44.9502 62.3754 41.5151 58.9403 41.5151 54.703C41.5151 53.6898 41.7117 52.7225 42.0685 51.8374H31.4629C31.8222 52.7253 32.0204 53.6961 32.0204 54.7133C32.0204 58.9507 28.5853 62.3858 24.3479 62.3858C20.1106 62.3858 16.6755 58.9507 16.6755 54.7133C16.6755 53.6961 16.8737 52.7253 17.233 51.8374H13.9837H12.1013V49.955V41.9647V4.82352C12.1013 4.75854 12.0486 4.70587 11.9837 4.70587ZM21.702 51.8374C20.9239 52.5534 20.4402 53.577 20.4402 54.7133C20.4402 56.8715 22.1898 58.621 24.3479 58.621C26.5061 58.621 28.2557 56.8715 28.2557 54.7133C28.2557 53.577 27.772 52.5534 26.9939 51.8374H21.702ZM46.5304 51.8374H51.8447C52.6162 52.5529 53.0953 53.5721 53.0953 54.703C53.0953 56.8611 51.3457 58.6107 49.1875 58.6107C47.0294 58.6107 45.2798 56.8611 45.2798 54.703C45.2798 53.5721 45.7589 52.5529 46.5304 51.8374ZM51.2425 40.0823V24.2204C51.2425 24.1554 51.1898 24.1027 51.1248 24.1027H49.1875H44.6429V29.6022C44.6429 31.6814 42.9574 33.3669 40.8782 33.3669H34.9155C32.8363 33.3669 31.1508 31.6814 31.1508 29.6022V24.1027H25.6797H23.4529C23.3879 24.1027 23.3353 24.1554 23.3353 24.2204V40.0823H51.2425ZM34.9155 24.1027V29.6022L40.8782 29.6022V24.1027H34.9155ZM47.3052 20.338V7.31326C47.3052 7.24829 47.2525 7.19562 47.1875 7.19562H43.4345L43.5055 10.8857C43.546 12.9928 41.849 14.7228 39.7415 14.7228H35.7261C33.6469 14.7228 31.9614 13.0372 31.9614 10.9581V7.19562H27.6797C27.6147 7.19562 27.562 7.24829 27.562 7.31326V20.338H33.0331H42.7605H47.3052ZM35.7261 7.19562V10.9581H39.7415L39.6691 7.19562H35.7261ZM15.866 43.847V48.0727H57.7853V43.847H53.1248H21.4529H15.866Z" fill="#4E22CB"/>
</svg>
