<svg width="64" height="64" viewBox="0 0 64 64" fill="none" xmlns="http://www.w3.org/2000/svg">
<path fill-rule="evenodd" clip-rule="evenodd" d="M37.8702 0.886866L37.1396 0.470459L36.4031 0.876503L11.7037 14.4952L10.9199 14.9274L10.928 15.8224L11.0764 32.1649L11.0924 33.9236L12.8265 33.6303C20.9458 32.2569 25.8235 35.3817 28.3686 39.5178C31.0118 43.813 31.1917 49.2596 29.6666 52.4973L29.0877 53.7262L30.2533 54.4237L36.3572 58.076L37.1073 58.5248L37.8676 58.0935L61.7623 44.5366L62.5221 44.1055V43.232V15.8088V14.9372L61.7649 14.5056L37.8702 0.886866ZM14.0608 30.4347L13.9514 18.3786L35.6274 30.4933V54.1432L32.888 52.5041C34.2929 48.2966 33.7414 42.5246 30.9236 37.9455C27.9164 33.0585 22.3686 29.5715 14.0608 30.4347ZM38.6274 54.2132V30.479L45.3089 26.619V32.4878C45.3089 35.2948 48.5106 36.8999 50.7598 35.2206L52.6959 33.7749C53.5581 33.1312 54.0659 32.1182 54.0659 31.0422V21.5599L59.5221 18.4077V42.3584L38.6274 54.2132ZM52.4654 19.0198L58.0083 15.8176L37.1153 3.90966L31.8601 6.80726L52.4654 19.0198ZM22.9912 11.6974L15.5185 15.8177L37.1151 27.888L44.011 23.9042L22.9912 11.6974ZM47.0056 22.1741L26.0795 10.0217L28.8312 8.49942L49.4858 20.7412L47.0056 22.1741ZM48.3089 24.8858L51.0659 23.293V31.0422C51.0659 31.1717 51.0048 31.2936 50.901 31.3711L48.9649 32.8167C48.6942 33.0188 48.3089 32.8256 48.3089 32.4878V24.8858Z" fill="#4E22CB"/>
<g clip-path="url(#clip0_151_4428)">
<path d="M9.80615 51.6389C10.6143 53.2728 11.925 54.6047 13.5459 55.4388C15.1551 56.265 16.9898 56.5441 18.7719 56.2335C20.5595 55.9192 22.1972 55.0345 23.4401 53.7117C24.6944 52.3765 25.493 50.6779 25.7211 48.8602C25.9528 47.0383 25.6038 45.1898 24.7239 43.5778C23.8523 41.9783 22.4901 40.7009 20.838 39.9336C19.1967 39.1734 17.3521 38.9695 15.5843 39.3528C13.8171 39.7359 12.3681 40.607 11.1712 41.9845C11.026 42.1373 10.4681 42.7544 10.0058 43.6857" stroke="#4E22CB" stroke-width="1.91045" stroke-linecap="round" stroke-linejoin="round"/>
<path d="M14.2621 43.7612L9.44778 44.6276L8.59668 39.7273" stroke="#4E22CB" stroke-width="1.91045" stroke-linecap="round" stroke-linejoin="round"/>
</g>
<circle cx="16.5" cy="47.5" r="15" stroke="#4E22CB" stroke-width="3"/>
<defs>
<clipPath id="clip0_151_4428">
<rect width="22.9254" height="22.9254" fill="white" transform="translate(4.77588 34.3879)"/>
</clipPath>
</defs>
</svg>
