<svg width="48" height="48" viewBox="0 0 48 48" fill="none" xmlns="http://www.w3.org/2000/svg">
<path fill-rule="evenodd" clip-rule="evenodd" d="M24.5119 37.7959C26.5528 35.8473 34 28.1608 34 19.7483C34 13.8993 29 10 24 10C19 10 14 13.8993 14 19.7483C14 28.1608 21.4472 35.8473 23.4881 37.7959C23.7732 38.068 24.2268 38.068 24.5119 37.7959ZM23.9998 24.104C25.6991 24.104 27.0767 22.8383 27.0767 21.277C27.0767 19.7157 25.6991 18.45 23.9998 18.45C22.3004 18.45 20.9229 19.7157 20.9229 21.277C20.9229 22.8383 22.3004 24.104 23.9998 24.104Z" fill="#00845B"/>
</svg>
