<svg width="30" height="22" viewBox="0 0 30 22"  xmlns="http://www.w3.org/2000/svg">
<path d="M18.8952 15.615H11.2368V1.87012H18.8952V15.615Z" />
<path d="M11.7276 8.7415C11.7276 5.95329 13.0348 3.46964 15.0705 1.86907C13.5818 0.698662 11.7031 8.39233e-05 9.66129 8.39233e-05C4.82751 8.39233e-05 0.90918 3.91368 0.90918 8.7415C0.90918 13.5693 4.82751 17.4829 9.66129 17.4829C11.7031 17.4829 13.5818 16.7843 15.0705 15.6139C13.0348 14.0134 11.7276 11.5297 11.7276 8.7415Z" fill="#CCC4C4"/>
<path d="M29.2239 8.7415C29.2239 13.5693 25.3055 17.4829 20.4718 17.4829C18.43 17.4829 16.5512 16.7843 15.062 15.6139C17.0983 14.0134 18.4055 11.5297 18.4055 8.7415C18.4055 5.95329 17.0983 3.46964 15.062 1.86907C16.5512 0.698662 18.43 8.39233e-05 20.4718 8.39233e-05C25.3055 8.39233e-05 29.2239 3.91368 29.2239 8.7415Z" fill="#3F3F3F"/>
<path d="M21.4778 19.4961C21.5797 19.4961 21.726 19.5156 21.8379 19.5595L21.6821 20.0352C21.5752 19.9913 21.4684 19.9769 21.366 19.9769C21.0354 19.9769 20.8701 20.1903 20.8701 20.5737V21.8753H20.3643V19.5545H20.8651V19.8363C20.9964 19.6323 21.1862 19.4961 21.4778 19.4961ZM19.6091 20.0158H18.7827V21.0645C18.7827 21.2973 18.865 21.4529 19.1182 21.4529C19.2496 21.4529 19.4149 21.409 19.5651 21.3218L19.7109 21.7536C19.5506 21.8653 19.298 21.9337 19.0793 21.9337C18.4811 21.9337 18.2724 21.613 18.2724 21.0739V20.0158H17.8004V19.5545H18.2724V18.8503H18.7827V19.5545H19.6091V20.0158ZM13.1375 20.5109C13.1915 20.1758 13.3952 19.9474 13.7552 19.9474C14.0808 19.9474 14.29 20.1514 14.3435 20.5109H13.1375ZM14.8688 20.7149C14.8638 19.9913 14.4164 19.4961 13.7647 19.4961C13.0841 19.4961 12.6077 19.9913 12.6077 20.7149C12.6077 21.4524 13.1036 21.9331 13.7992 21.9331C14.1492 21.9331 14.4698 21.8458 14.7519 21.608L14.5037 21.234C14.3095 21.3896 14.0613 21.4768 13.8281 21.4768C13.5026 21.4768 13.206 21.3262 13.1331 20.9089H14.8588C14.8638 20.8455 14.8688 20.7827 14.8688 20.7149ZM17.0904 20.1469C16.9496 20.0591 16.663 19.9474 16.3663 19.9474C16.0892 19.9474 15.9239 20.0497 15.9239 20.2197C15.9239 20.3748 16.0987 20.4187 16.3174 20.4476L16.5556 20.4815C17.0614 20.5548 17.3675 20.7682 17.3675 21.1762C17.3675 21.618 16.9785 21.9337 16.3079 21.9337C15.9284 21.9337 15.5783 21.8364 15.3012 21.6324L15.5394 21.239C15.7097 21.3701 15.9629 21.4818 16.3129 21.4818C16.658 21.4818 16.8427 21.3801 16.8427 21.2001C16.8427 21.0695 16.7114 20.9961 16.4342 20.9578L16.1961 20.9239C15.6757 20.8505 15.3936 20.6176 15.3936 20.2392C15.3936 19.7779 15.7731 19.4961 16.3613 19.4961C16.7309 19.4961 17.0664 19.5789 17.3091 19.739L17.0904 20.1469ZM23.326 19.9757C23.2219 19.9757 23.1256 19.9941 23.036 20.0302C22.947 20.0669 22.8696 20.118 22.8045 20.1836C22.7394 20.2492 22.6882 20.3281 22.6509 20.4198C22.6136 20.5115 22.5953 20.6126 22.5953 20.7227C22.5953 20.8333 22.6136 20.9339 22.6509 21.0256C22.6882 21.1173 22.7394 21.1962 22.8045 21.2618C22.8696 21.3273 22.947 21.3785 23.036 21.4151C23.1256 21.4518 23.2219 21.4696 23.326 21.4696C23.43 21.4696 23.5269 21.4518 23.6159 21.4151C23.7055 21.3785 23.7834 21.3273 23.8485 21.2618C23.9147 21.1962 23.9659 21.1173 24.0038 21.0256C24.0411 20.9339 24.0594 20.8333 24.0594 20.7227C24.0594 20.6126 24.0411 20.5115 24.0038 20.4198C23.9659 20.3281 23.9147 20.2492 23.8485 20.1836C23.7834 20.118 23.7055 20.0669 23.6159 20.0302C23.5269 19.9941 23.43 19.9757 23.326 19.9757ZM23.326 19.4961C23.5063 19.4961 23.6732 19.5273 23.8268 19.5901C23.9804 19.6523 24.1134 19.7384 24.2253 19.8479C24.3377 19.9574 24.4251 20.0869 24.4885 20.2358C24.5519 20.3853 24.5837 20.5476 24.5837 20.7227C24.5837 20.8977 24.5519 21.06 24.4885 21.2095C24.4251 21.3585 24.3377 21.4885 24.2253 21.598C24.1134 21.7075 23.9804 21.7931 23.8268 21.8559C23.6732 21.9181 23.5063 21.9492 23.326 21.9492C23.1457 21.9492 22.9787 21.9181 22.8251 21.8559C22.6715 21.7931 22.5396 21.7075 22.4283 21.598C22.317 21.4885 22.2296 21.3585 22.1662 21.2095C22.1028 21.06 22.071 20.8977 22.071 20.7227C22.071 20.5476 22.1028 20.3853 22.1662 20.2358C22.2296 20.0869 22.317 19.9574 22.4283 19.8479C22.5396 19.7384 22.6715 19.6523 22.8251 19.5901C22.9787 19.5273 23.1457 19.4961 23.326 19.4961ZM10.1836 20.7149C10.1836 20.307 10.4513 19.9719 10.8887 19.9719C11.3066 19.9719 11.5888 20.2925 11.5888 20.7149C11.5888 21.1373 11.3066 21.4574 10.8887 21.4574C10.4513 21.4574 10.1836 21.1228 10.1836 20.7149ZM12.0651 20.7149V19.5545H11.5598V19.8363C11.399 19.6273 11.1564 19.4961 10.8258 19.4961C10.1741 19.4961 9.66383 20.0058 9.66383 20.7149C9.66383 21.4235 10.1741 21.9337 10.8258 21.9337C11.1564 21.9337 11.399 21.8025 11.5598 21.5935V21.8753H12.0651V20.7149ZM9.21641 21.8753V20.4187C9.21641 19.8702 8.86637 19.5011 8.30263 19.4961C8.00602 19.4911 7.69938 19.5834 7.48569 19.9091C7.32541 19.6517 7.0722 19.4961 6.71716 19.4961C6.46951 19.4961 6.22632 19.5689 6.03655 19.8407V19.5545H5.53125V21.8753H6.04156V20.5887C6.04156 20.1858 6.26528 19.9719 6.61031 19.9719C6.94588 19.9719 7.11617 20.1903 7.11617 20.5837V21.8753H7.62648V20.5887C7.62648 20.1858 7.86021 19.9719 8.19523 19.9719C8.54081 19.9719 8.70609 20.1903 8.70609 20.5837V21.8753H9.21641Z" fill="#FCFCFC"/>
<path d="M25.1279 21.7016V21.7588H25.1807C25.1924 21.7588 25.2024 21.756 25.209 21.7516C25.2163 21.7471 25.2201 21.7394 25.2201 21.7299C25.2201 21.7205 25.2163 21.7132 25.209 21.7088C25.2024 21.7038 25.1924 21.7016 25.1807 21.7016H25.1279ZM25.1812 21.6615C25.2085 21.6615 25.2296 21.6677 25.2446 21.6799C25.2596 21.6921 25.2668 21.7088 25.2668 21.7299C25.2668 21.7477 25.2613 21.7621 25.249 21.7738C25.2374 21.7849 25.2201 21.7921 25.1985 21.7949L25.2685 21.8755H25.214L25.149 21.7955H25.1279V21.8755H25.0823V21.6615H25.1812ZM25.1673 21.9489C25.1924 21.9489 25.2157 21.9444 25.2368 21.935C25.2585 21.9255 25.2774 21.9127 25.2935 21.8966C25.3096 21.8805 25.3224 21.8616 25.3318 21.8394C25.3407 21.8177 25.3457 21.7944 25.3457 21.7694C25.3457 21.7444 25.3407 21.721 25.3318 21.6993C25.3224 21.6777 25.3096 21.6582 25.2935 21.6421C25.2774 21.626 25.2585 21.6132 25.2368 21.6043C25.2157 21.5949 25.1924 21.5904 25.1673 21.5904C25.1423 21.5904 25.1184 21.5949 25.0968 21.6043C25.0745 21.6132 25.0551 21.626 25.039 21.6421C25.0229 21.6582 25.0101 21.6777 25.0012 21.6993C24.9917 21.721 24.9873 21.7444 24.9873 21.7694C24.9873 21.7944 24.9917 21.8177 25.0012 21.8394C25.0101 21.8616 25.0229 21.8805 25.039 21.8966C25.0551 21.9127 25.0745 21.9255 25.0968 21.935C25.1184 21.9444 25.1423 21.9489 25.1673 21.9489ZM25.1673 21.5387C25.2001 21.5387 25.2301 21.5448 25.2585 21.5571C25.2874 21.5687 25.3118 21.5854 25.3335 21.6065C25.3546 21.6271 25.3713 21.6515 25.3835 21.6799C25.3958 21.7077 25.4019 21.7377 25.4019 21.7694C25.4019 21.801 25.3958 21.8311 25.3835 21.8588C25.3713 21.8866 25.3546 21.9111 25.3335 21.9316C25.3118 21.9528 25.2874 21.9694 25.2585 21.9817C25.2301 21.9939 25.2001 22 25.1673 22C25.134 22 25.1034 21.9939 25.0745 21.9817C25.0456 21.9694 25.0206 21.9528 24.9995 21.9316C24.9784 21.9111 24.9617 21.8866 24.9495 21.8588C24.9373 21.8311 24.9312 21.801 24.9312 21.7694C24.9312 21.7377 24.9373 21.7077 24.9495 21.6799C24.9617 21.6515 24.9784 21.6271 24.9995 21.6065C25.0206 21.5854 25.0456 21.5687 25.0745 21.5571C25.1034 21.5448 25.134 21.5387 25.1673 21.5387Z" fill="#231F20"/>
</svg>
