<svg width="29" height="22" viewBox="0 0 29 22"  xmlns="http://www.w3.org/2000/svg">
<path d="M5.69853 21.8785V20.4217C5.70703 20.2992 5.68929 20.1763 5.64649 20.0612C5.60369 19.946 5.53682 19.8413 5.45032 19.754C5.36382 19.6667 5.25969 19.5988 5.14486 19.5549C5.03003 19.5109 4.90713 19.4919 4.78437 19.4991C4.62367 19.4886 4.46309 19.5213 4.3194 19.5939C4.1757 19.6665 4.05416 19.7763 3.96745 19.9118C3.88842 19.7804 3.77533 19.6727 3.64012 19.6C3.5049 19.5274 3.35256 19.4925 3.19916 19.4991C3.06545 19.4923 2.93229 19.5206 2.81288 19.5811C2.69347 19.6415 2.59196 19.7321 2.5184 19.8439V19.5574H2.0127V21.8785H2.52327V20.6014C2.51241 20.522 2.51924 20.4412 2.54328 20.3648C2.56731 20.2884 2.60796 20.2182 2.66232 20.1593C2.71667 20.1003 2.78339 20.0541 2.8577 20.024C2.93201 19.9938 3.01208 19.9804 3.09219 19.9847C3.42771 19.9847 3.5979 20.2032 3.5979 20.5965V21.8882H4.10847V20.6014C4.09805 20.5221 4.1052 20.4415 4.1294 20.3653C4.1536 20.289 4.19427 20.219 4.24853 20.1602C4.30279 20.1014 4.36932 20.0552 4.44343 20.0248C4.51753 19.9945 4.5974 19.9808 4.67739 19.9847C5.02263 19.9847 5.18796 20.2032 5.18796 20.5965V21.8882L5.69853 21.8785ZM13.2525 19.5574H12.421V18.8532H11.9105V19.5574H11.4485V20.0187H11.9202V21.087C11.9202 21.626 12.1293 21.9465 12.7274 21.9465C12.9508 21.9473 13.17 21.885 13.3595 21.7668L13.2136 21.3347C13.078 21.4154 12.9241 21.4606 12.7663 21.4658C12.5232 21.4658 12.4308 21.3104 12.4308 21.0773V20.0187H13.2574L13.2525 19.5574ZM17.5657 19.4991C17.4424 19.4955 17.3204 19.5251 17.2125 19.585C17.1047 19.6448 17.015 19.7325 16.953 19.839V19.5574H16.4521V21.8785H16.9578V20.5771C16.9578 20.1935 17.1232 19.9798 17.4441 19.9798C17.5523 19.9784 17.6597 19.9982 17.7602 20.0381L17.9158 19.5525C17.8003 19.5112 17.6786 19.4899 17.5559 19.4894L17.5657 19.4991ZM11.0449 19.7419C10.7587 19.5719 10.4296 19.4876 10.0967 19.4991C9.50836 19.4991 9.12422 19.7807 9.12422 20.2421C9.12422 20.6208 9.40625 20.8539 9.92654 20.9268L10.1697 20.9607C10.4468 20.9996 10.5781 21.0724 10.5781 21.2035C10.5781 21.3832 10.3934 21.4852 10.0481 21.4852C9.77041 21.4932 9.49808 21.4077 9.27496 21.2424L9.03183 21.6357C9.32641 21.8411 9.67924 21.9467 10.0384 21.9368C10.7094 21.9368 11.0984 21.6212 11.0984 21.1793C11.0984 20.7374 10.7921 20.5577 10.2864 20.4849L10.0432 20.4509C9.82443 20.4217 9.64938 20.378 9.64938 20.2226C9.64938 20.0672 9.8147 19.9507 10.0919 19.9507C10.348 19.9537 10.5992 20.0222 10.8213 20.1498L11.0449 19.7419ZM24.5897 19.4991C24.4664 19.4955 24.3444 19.5251 24.2365 19.585C24.1287 19.6448 24.039 19.7325 23.977 19.839V19.5574H23.4761V21.8785H23.9818V20.5771C23.9818 20.1935 24.1472 19.9798 24.4681 19.9798C24.5763 19.9784 24.6836 19.9982 24.7842 20.0381L24.9398 19.5525C24.8243 19.5112 24.7026 19.4899 24.5799 19.4894L24.5897 19.4991ZM18.0738 20.7131C18.0678 20.8762 18.0959 21.0388 18.1564 21.1904C18.217 21.342 18.3085 21.4794 18.4252 21.5937C18.5419 21.7079 18.6812 21.7966 18.8342 21.854C18.9872 21.9114 19.1506 21.9363 19.3138 21.9271C19.6174 21.9425 19.9158 21.8438 20.1501 21.6503L19.907 21.2424C19.7322 21.3755 19.519 21.4488 19.2992 21.4512C19.1122 21.4361 18.9379 21.3513 18.8107 21.2136C18.6835 21.0759 18.613 20.8955 18.613 20.7082C18.613 20.5209 18.6835 20.3405 18.8107 20.2029C18.9379 20.0652 19.1122 19.9804 19.2992 19.9653C19.519 19.9677 19.7322 20.0409 19.907 20.1741L20.1501 19.7662C19.9158 19.5727 19.6174 19.4739 19.3138 19.4894C19.1506 19.4801 18.9872 19.505 18.8342 19.5624C18.6812 19.6199 18.5419 19.7085 18.4252 19.8228C18.3085 19.9371 18.217 20.0744 18.1564 20.2261C18.0959 20.3777 18.0678 20.5403 18.0738 20.7034V20.7131ZM22.8099 20.7131V19.5574H22.3042V19.839C22.2184 19.7287 22.1074 19.6403 21.9806 19.5812C21.8538 19.5221 21.7147 19.4939 21.5749 19.4991C21.2524 19.4991 20.9432 19.627 20.7153 19.8547C20.4873 20.0823 20.3592 20.3911 20.3592 20.7131C20.3592 21.0351 20.4873 21.3438 20.7153 21.5715C20.9432 21.7992 21.2524 21.9271 21.5749 21.9271C21.7147 21.9322 21.8538 21.9041 21.9806 21.845C22.1074 21.7859 22.2184 21.6975 22.3042 21.5872V21.8688H22.8099V20.7131ZM20.9281 20.7131C20.9362 20.5765 20.9841 20.4452 21.0659 20.3354C21.1478 20.2256 21.26 20.1421 21.3887 20.0952C21.5175 20.0483 21.6572 20.04 21.7906 20.0713C21.924 20.1027 22.0453 20.1724 22.1395 20.2717C22.2338 20.371 22.297 20.4957 22.3212 20.6305C22.3454 20.7652 22.3296 20.904 22.2758 21.0299C22.2219 21.1558 22.1324 21.2632 22.0183 21.3389C21.9041 21.4146 21.7703 21.4553 21.6332 21.4561C21.5369 21.4573 21.4415 21.4386 21.3528 21.4012C21.2641 21.3637 21.1841 21.3084 21.1179 21.2386C21.0517 21.1688 21.0006 21.0861 20.968 20.9957C20.9353 20.9052 20.9217 20.809 20.9281 20.7131ZM14.8256 19.4991C14.5032 19.5036 14.1958 19.6358 13.971 19.8667C13.7462 20.0975 13.6225 20.4081 13.627 20.7301C13.6315 21.0521 13.7639 21.3591 13.9951 21.5835C14.2262 21.808 14.5372 21.9316 14.8596 21.9271C15.2094 21.945 15.5534 21.8325 15.8249 21.6115L15.5817 21.2375C15.3897 21.3913 15.1519 21.4767 14.9058 21.4803C14.7387 21.4947 14.5725 21.4434 14.4426 21.3373C14.3128 21.2312 14.2295 21.0787 14.2105 20.9122H15.9367C15.9367 20.8491 15.9367 20.7859 15.9367 20.7179C15.9367 19.9895 15.4845 19.5039 14.8329 19.5039L14.8256 19.4991ZM14.8256 19.9507C14.9013 19.9491 14.9765 19.9624 15.047 19.9898C15.1176 20.0173 15.182 20.0583 15.2366 20.1106C15.2913 20.1629 15.3351 20.2255 15.3655 20.2947C15.3959 20.3639 15.4124 20.4384 15.414 20.514H14.1983C14.2071 20.3581 14.2767 20.2119 14.3921 20.1066C14.5075 20.0013 14.6596 19.9454 14.8159 19.9507H14.8256ZM27.495 20.7179V18.625H27.0088V19.839C26.9229 19.7287 26.812 19.6403 26.6852 19.5812C26.5583 19.5221 26.4193 19.4939 26.2794 19.4991C25.957 19.4991 25.6478 19.627 25.4198 19.8547C25.1918 20.0823 25.0638 20.3911 25.0638 20.7131C25.0638 21.0351 25.1918 21.3438 25.4198 21.5715C25.6478 21.7992 25.957 21.9271 26.2794 21.9271C26.4193 21.9322 26.5583 21.9041 26.6852 21.845C26.812 21.7859 26.9229 21.6975 27.0088 21.5872V21.8688H27.495V20.7179ZM28.3387 21.541C28.3703 21.5407 28.4017 21.5464 28.4311 21.558C28.459 21.5694 28.4846 21.5859 28.5065 21.6066C28.5278 21.6275 28.5451 21.6522 28.5575 21.6794C28.5698 21.7078 28.5762 21.7384 28.5762 21.7693C28.5762 21.8002 28.5698 21.8308 28.5575 21.8591C28.5451 21.8863 28.5278 21.911 28.5065 21.932C28.4846 21.9527 28.459 21.9691 28.4311 21.9805C28.402 21.9933 28.3705 22 28.3387 21.9999C28.2926 21.9996 28.2476 21.9862 28.2088 21.9612C28.1701 21.9363 28.1392 21.9009 28.1199 21.8591C28.1077 21.8307 28.1014 21.8002 28.1014 21.7693C28.1014 21.7384 28.1077 21.7078 28.1199 21.6794C28.1323 21.6522 28.1496 21.6275 28.1709 21.6066C28.1928 21.5859 28.2184 21.5694 28.2463 21.558C28.278 21.5455 28.3119 21.5397 28.346 21.541H28.3387ZM28.3387 21.9514C28.363 21.9515 28.387 21.9466 28.4092 21.9368C28.4301 21.9275 28.4491 21.9143 28.4651 21.898C28.4955 21.8648 28.5124 21.8215 28.5124 21.7766C28.5124 21.7316 28.4955 21.6883 28.4651 21.6552C28.4491 21.6388 28.4302 21.6256 28.4092 21.6163C28.387 21.6066 28.363 21.6017 28.3387 21.6017C28.3145 21.6019 28.2905 21.6068 28.2682 21.6163C28.2463 21.6253 28.2265 21.6385 28.2098 21.6552C28.1794 21.6883 28.1626 21.7316 28.1626 21.7766C28.1626 21.8215 28.1794 21.8648 28.2098 21.898C28.2266 21.9146 28.2464 21.9278 28.2682 21.9368C28.2927 21.9474 28.3193 21.9523 28.346 21.9514H28.3387ZM28.3533 21.6624C28.376 21.6613 28.3983 21.6682 28.4165 21.6819C28.4239 21.688 28.4298 21.6958 28.4336 21.7047C28.4374 21.7136 28.4391 21.7232 28.4384 21.7329C28.4387 21.7409 28.4374 21.749 28.4345 21.7565C28.4315 21.764 28.4271 21.7708 28.4214 21.7766C28.4073 21.7893 28.3893 21.797 28.3703 21.7984L28.4408 21.8785H28.3849L28.3192 21.7984H28.2974V21.8785H28.2512V21.6649L28.3533 21.6624ZM28.2998 21.7037V21.762H28.3533C28.3628 21.7648 28.3729 21.7648 28.3825 21.762C28.3842 21.7586 28.3851 21.7549 28.3851 21.7511C28.3851 21.7473 28.3842 21.7435 28.3825 21.7401C28.3842 21.7367 28.3851 21.733 28.3851 21.7292C28.3851 21.7254 28.3842 21.7217 28.3825 21.7183C28.3729 21.7155 28.3628 21.7155 28.3533 21.7183L28.2998 21.7037ZM25.6254 20.7179C25.6334 20.5813 25.6813 20.45 25.7632 20.3402C25.845 20.2304 25.9572 20.147 26.086 20.1C26.2147 20.0531 26.3544 20.0448 26.4878 20.0762C26.6212 20.1076 26.7425 20.1772 26.8368 20.2766C26.9311 20.3759 26.9942 20.5006 27.0184 20.6353C27.0426 20.77 27.0268 20.9089 26.973 21.0348C26.9192 21.1606 26.8297 21.268 26.7155 21.3438C26.6014 21.4195 26.4675 21.4602 26.3305 21.4609C26.2342 21.4621 26.1387 21.4434 26.05 21.406C25.9613 21.3686 25.8814 21.3133 25.8152 21.2435C25.7489 21.1737 25.6979 21.091 25.6652 21.0005C25.6326 20.9101 25.619 20.8139 25.6254 20.7179ZM8.55043 20.7179V19.5574H8.04472V19.839C7.95884 19.7287 7.84792 19.6403 7.72109 19.5812C7.59427 19.5221 7.45519 19.4939 7.31534 19.4991C6.99293 19.4991 6.68372 19.627 6.45575 19.8547C6.22777 20.0823 6.09969 20.3911 6.09969 20.7131C6.09969 21.0351 6.22777 21.3438 6.45575 21.5715C6.68372 21.7992 6.99293 21.9271 7.31534 21.9271C7.45519 21.9322 7.59427 21.9041 7.72109 21.845C7.84792 21.7859 7.95884 21.6975 8.04472 21.5872V21.8688H8.55043V20.7179ZM6.66861 20.7179C6.67668 20.5813 6.72458 20.45 6.80642 20.3402C6.88825 20.2304 7.00046 20.147 7.12921 20.1C7.25796 20.0531 7.39764 20.0448 7.53105 20.0762C7.66445 20.1076 7.78576 20.1772 7.88004 20.2766C7.97431 20.3759 8.03744 20.5006 8.06164 20.6353C8.08584 20.77 8.07006 20.9089 8.01625 21.0348C7.96243 21.1606 7.87293 21.268 7.75876 21.3438C7.64459 21.4195 7.51074 21.4602 7.37369 21.4609C7.27702 21.4628 7.18101 21.4446 7.09175 21.4075C7.00249 21.3704 6.92193 21.3151 6.85518 21.2453C6.78842 21.1754 6.73694 21.0925 6.70399 21.0017C6.67103 20.9109 6.65733 20.8143 6.66375 20.7179H6.66861Z" fill="#FCFCFC"/>
<path d="M18.536 1.86914H10.8774V15.6141H18.536V1.86914Z" fill="#222222"/>
<path d="M11.3634 8.74401C11.3619 7.42008 11.6622 6.11319 12.2414 4.92229C12.8206 3.7314 13.6635 2.68773 14.7064 1.87031C13.4152 0.856913 11.8645 0.226741 10.2316 0.0518172C8.59869 -0.123106 6.94946 0.164277 5.47238 0.881121C3.9953 1.59797 2.74996 2.71535 1.8787 4.10557C1.00744 5.49578 0.54541 7.10275 0.54541 8.74279C0.54541 10.3828 1.00744 11.9898 1.8787 13.38C2.74996 14.7702 3.9953 15.8876 5.47238 16.6045C6.94946 17.3213 8.59869 17.6087 10.2316 17.4338C11.8645 17.2588 13.4152 16.6287 14.7064 15.6153C13.6639 14.7981 12.8211 13.7548 12.2419 12.5644C11.6628 11.3739 11.3623 10.0675 11.3634 8.74401Z" fill="#B3B3B3"/>
<path d="M28.8688 8.74306C28.8688 10.3832 28.4066 11.9903 27.5352 13.3806C26.6638 14.7708 25.4183 15.8882 23.941 16.6049C22.4637 17.3217 20.8143 17.6089 19.1814 17.4337C17.5484 17.2585 15.9977 16.628 14.7065 15.6143C15.7487 14.7964 16.5912 13.7529 17.1705 12.5624C17.7498 11.3719 18.0509 10.0655 18.0509 8.74185C18.0509 7.41821 17.7498 6.11185 17.1705 4.92134C16.5912 3.73083 15.7487 2.68726 14.7065 1.86937C15.9977 0.855654 17.5484 0.225175 19.1814 0.0500004C20.8143 -0.125174 22.4637 0.162024 23.941 0.878766C25.4183 1.59551 26.6638 2.71287 27.5352 4.10314C28.4066 5.4934 28.8688 7.10047 28.8688 8.74064V8.74306Z" fill="#E5E5E5"/>
</svg>
