<svg width="64" height="64" viewBox="0 0 64 64" fill="none" xmlns="http://www.w3.org/2000/svg">
<g clip-path="url(#clip0_151_4411)">
<path d="M54.7715 17.9533L53.5607 9.68611L46.0704 5.98486L40.237 0L32.0002 1.415L23.7633 0L17.9301 5.98486L10.4397 9.68611L9.22869 17.9533L5.35107 25.3523L9.22869 32.7514L10.4394 41.0185L17.1613 44.3402V61.3238L23.6177 58.5225V64.0003L32 60.6549L40.3824 64V58.5223L46.8387 61.3235V44.34L53.5606 41.0184L54.7716 32.7512L58.6492 25.3522L54.7715 17.9533ZM23.6178 54.3693L20.971 55.5179V47.8399L23.6178 50.5555V54.3693ZM36.5729 56.8693V58.3779L32.0002 56.5531L27.4274 58.3779V56.8693V50.0779L32.0002 49.2898L36.5729 50.0779V56.8693ZM43.0293 55.5179L40.3825 54.3694V50.5555L43.0293 47.8398V55.5179ZM51.0961 31.5574L50.0809 38.4887L43.7976 41.5934L38.9074 46.6108L32.226 45.4632L32 45.4242L31.7664 45.4644L25.0927 46.6108L20.2024 41.5933L13.9192 38.4886L12.9041 31.5573L9.65207 25.3523L12.9041 19.1473L13.9193 12.216L20.2025 9.11123L25.0928 4.09387L32.0002 5.28036L38.9075 4.09387L43.7977 9.11123L50.081 12.216L51.0961 19.1473L54.3481 25.3523L51.0961 31.5574Z" fill="#4E22CB"/>
<path d="M32.0001 8.44238C22.6761 8.44238 15.0903 16.0281 15.0903 25.3522C15.0903 34.6763 22.6759 42.2621 32.0001 42.2621C41.3242 42.2621 48.9098 34.6763 48.9098 25.3522C48.9098 16.0281 41.324 8.44238 32.0001 8.44238ZM32.0001 38.4527C24.7766 38.4527 18.8998 32.576 18.8998 25.3524C18.8998 18.1287 24.7766 12.252 32.0001 12.252C39.2235 12.252 45.1003 18.1289 45.1003 25.3524C45.1003 32.5758 39.2235 38.4527 32.0001 38.4527Z" fill="#4E22CB"/>
</g>
<defs>
<clipPath id="clip0_151_4411">
<rect width="64" height="64" fill="white"/>
</clipPath>
</defs>
</svg>
