<svg width="59" height="16" viewBox="0 0 59 16"  xmlns="http://www.w3.org/2000/svg">
<path fill-rule="evenodd" clip-rule="evenodd" d="M5.69564 0.00273032C6.22038 -0.000404622 7.77987 -0.140671 8.44044 2.08575C8.88541 3.58549 9.59421 6.04213 10.5669 9.45568H10.963C12.0061 5.85688 12.7226 3.40023 13.1126 2.08575C13.7801 -0.163863 15.4487 0.00277441 16.1161 0.00277441L21.2657 0.00278082V16H16.0171V6.57256H15.6652L12.7394 16H8.79048L5.86467 6.56557H5.51272V16H0.26416V0.00278082L5.69564 0.00273032ZM28.8025 0.00278082V9.43721H29.2212L32.7802 1.67935C33.4711 0.135509 34.9435 0.00278082 34.9435 0.00278082H40.0225V16H34.6644V6.56557H34.2457L30.7565 14.3234C30.0656 15.8603 28.5234 16 28.5234 16H23.4443V0.00278082H28.8025ZM58.5428 7.60476C57.7954 9.71989 55.4482 11.2347 52.8496 11.2347H47.2305V16H42.1352V7.60476H58.5428Z" fill="#B3B3B3"/>
<path fill-rule="evenodd" clip-rule="evenodd" d="M53.0955 0.00292969H41.8682C42.1354 3.56445 45.2066 6.61335 48.386 6.61335H58.897C59.5036 3.6533 57.4155 0.00292969 53.0955 0.00292969Z" fill="#E5E5E5"/>
</svg>
