<svg width="24" height="24" viewBox="0 0 24 24" xmlns="http://www.w3.org/2000/svg">
<path d="M12.0003 0.799927C13.4855 0.799927 14.9099 1.38992 15.9601 2.44013C17.0103 3.49033 17.6003 4.91471 17.6003 6.39993C17.6003 7.88514 17.0103 9.30952 15.9601 10.3597C14.9099 11.4099 13.4855 11.9999 12.0003 11.9999C10.5151 11.9999 9.0907 11.4099 8.04049 10.3597C6.99029 9.30952 6.40029 7.88514 6.40029 6.39993C6.40029 4.91471 6.99029 3.49033 8.04049 2.44013C9.0907 1.38992 10.5151 0.799927 12.0003 0.799927ZM12.0003 3.59993C11.2577 3.59993 10.5455 3.89493 10.0204 4.42003C9.49529 4.94513 9.20029 5.65732 9.20029 6.39993C9.20029 7.14253 9.49529 7.85472 10.0204 8.37983C10.5455 8.90493 11.2577 9.19993 12.0003 9.19993C12.7429 9.19993 13.4551 8.90493 13.9802 8.37983C14.5053 7.85472 14.8003 7.14253 14.8003 6.39993C14.8003 5.65732 14.5053 4.94513 13.9802 4.42003C13.4551 3.89493 12.7429 3.59993 12.0003 3.59993ZM12.0003 13.3999C15.7383 13.3999 23.2003 15.2619 23.2003 18.9999V23.1999H0.800293V18.9999C0.800293 15.2619 8.26229 13.3999 12.0003 13.3999ZM12.0003 16.0599C7.84229 16.0599 3.46029 18.1039 3.46029 18.9999V20.5399H20.5403V18.9999C20.5403 18.1039 16.1583 16.0599 12.0003 16.0599Z" />
</svg>
