<svg width="50" height="16" viewBox="0 0 50 16"  xmlns="http://www.w3.org/2000/svg">
<path d="M21.4521 15.7692H17.4419L19.9502 0.280762H23.9602L21.4521 15.7692Z" fill="#B3B3B3"/>
<path d="M35.9895 0.659404C35.1986 0.346017 33.944 0 32.3927 0C28.4325 0 25.6437 2.10895 25.6266 5.12412C25.5937 7.3487 27.6233 8.58429 29.1412 9.32603C30.6927 10.084 31.2201 10.5787 31.2201 11.2543C31.2043 12.2919 29.9664 12.7702 28.8118 12.7702C27.2108 12.7702 26.3529 12.5236 25.0492 11.9463L24.5211 11.6989L23.96 15.1757C24.9005 15.6036 26.6334 15.9834 28.4325 16C32.6403 16 35.3797 13.9237 35.4121 10.7105C35.4282 8.94739 34.3565 7.59639 32.046 6.49242C30.6434 5.78374 29.7844 5.30589 29.7844 4.58078C29.8009 3.9216 30.5109 3.24643 32.0942 3.24643C33.3979 3.21336 34.3558 3.52631 35.0815 3.83947L35.4442 4.00394L35.9895 0.659404Z" fill="#B3B3B3"/>
<path d="M41.3197 10.2822C41.65 9.3924 42.9208 5.94865 42.9208 5.94865C42.9041 5.98172 43.2504 5.04244 43.4484 4.46581L43.7287 5.80039C43.7287 5.80039 44.4881 9.50781 44.653 10.2822C44.0262 10.2822 42.1118 10.2822 41.3197 10.2822ZM46.2698 0.280762H43.1679C42.2114 0.280762 41.4846 0.560641 41.0719 1.56584L35.1152 15.769H39.323C39.323 15.769 40.0158 13.8573 40.1647 13.4456C40.6263 13.4456 44.7196 13.4456 45.3135 13.4456C45.4286 13.9894 45.792 15.769 45.792 15.769H49.5051L46.2698 0.280762Z" fill="#B3B3B3"/>
<path d="M14.0923 0.280762L10.165 10.8424L9.73581 8.70036C9.00973 6.22875 6.73258 3.5434 4.19141 2.20816L7.7887 15.7528H12.0294L18.3328 0.280762H14.0923Z" fill="#B3B3B3"/>
<path d="M6.51807 0.280762H0.0660072L0 0.59371C5.03301 1.87901 8.36628 4.97717 9.73577 8.70102L8.33317 1.58271C8.10225 0.593491 7.39262 0.313392 6.51807 0.280762Z" fill="#E5E5E5"/>
</svg>
