<svg width="20" height="20" viewBox="0 0 20 20"  xmlns="http://www.w3.org/2000/svg">
<path d="M16.0001 16C16.5306 16 17.0393 16.2107 17.4143 16.5858C17.7894 16.9608 18.0001 17.4696 18.0001 18C18.0001 18.5304 17.7894 19.0391 17.4143 19.4142C17.0393 19.7893 16.5306 20 16.0001 20C15.4697 20 14.961 19.7893 14.5859 19.4142C14.2108 19.0391 14.0001 18.5304 14.0001 18C14.0001 16.89 14.8901 16 16.0001 16ZM0.00012207 -1.52588e-05H3.27012L4.21012 1.99998H19.0001C19.2653 1.99998 19.5197 2.10534 19.7072 2.29288C19.8948 2.48041 20.0001 2.73477 20.0001 2.99998C20.0001 3.16998 19.9501 3.33998 19.8801 3.49998L16.3001 9.96999C15.9601 10.58 15.3001 11 14.5501 11H7.10012L6.20012 12.63L6.17012 12.75C6.17012 12.8163 6.19646 12.8799 6.24335 12.9268C6.29023 12.9736 6.35382 13 6.42012 13H18.0001V15H6.00012C5.46969 15 4.96098 14.7893 4.58591 14.4142C4.21084 14.0391 4.00012 13.5304 4.00012 13C4.00012 12.65 4.09012 12.32 4.24012 12.04L5.60012 9.58998L2.00012 1.99998H0.00012207V-1.52588e-05ZM6.00012 16C6.53056 16 7.03926 16.2107 7.41434 16.5858C7.78941 16.9608 8.00012 17.4696 8.00012 18C8.00012 18.5304 7.78941 19.0391 7.41434 19.4142C7.03926 19.7893 6.53056 20 6.00012 20C5.46969 20 4.96098 19.7893 4.58591 19.4142C4.21084 19.0391 4.00012 18.5304 4.00012 18C4.00012 16.89 4.89012 16 6.00012 16ZM15.0001 8.99998L17.7801 3.99998H5.14012L7.50012 8.99998H15.0001Z" />
</svg>
