<svg width="18" height="18" viewBox="0 0 18 18"  xmlns="http://www.w3.org/2000/svg">
<path d="M9.0001 0.599976C10.114 0.599976 11.1823 1.04247 11.9699 1.83013C12.7576 2.61778 13.2001 3.68607 13.2001 4.79998C13.2001 5.91388 12.7576 6.98217 11.9699 7.76982C11.1823 8.55748 10.114 8.99998 9.0001 8.99998C7.88619 8.99998 6.8179 8.55748 6.03025 7.76982C5.2426 6.98217 4.8001 5.91388 4.8001 4.79998C4.8001 3.68607 5.2426 2.61778 6.03025 1.83013C6.8179 1.04247 7.88619 0.599976 9.0001 0.599976ZM9.0001 2.69998C8.44314 2.69998 7.909 2.92122 7.51517 3.31505C7.12135 3.70888 6.9001 4.24302 6.9001 4.79998C6.9001 5.35693 7.12135 5.89107 7.51517 6.2849C7.909 6.67873 8.44314 6.89998 9.0001 6.89998C9.55705 6.89998 10.0912 6.67873 10.485 6.2849C10.8788 5.89107 11.1001 5.35693 11.1001 4.79998C11.1001 4.24302 10.8788 3.70888 10.485 3.31505C10.0912 2.92122 9.55705 2.69998 9.0001 2.69998ZM9.0001 10.05C11.8036 10.05 17.4001 11.4465 17.4001 14.25V17.4H0.600098V14.25C0.600098 11.4465 6.1966 10.05 9.0001 10.05ZM9.0001 12.045C5.8816 12.045 2.5951 13.578 2.5951 14.25V15.405H15.4051V14.25C15.4051 13.578 12.1186 12.045 9.0001 12.045Z" />
</svg>
