<svg width="60" height="60" viewBox="0 0 60 60" xmlns="http://www.w3.org/2000/svg">
<path fill-rule="evenodd" clip-rule="evenodd" d="M38.25 25.5H19.875V55.125H38.25V25.5ZM16.875 22.5V58.125H41.25V22.5H16.875Z" />
<path fill-rule="evenodd" clip-rule="evenodd" d="M22.6875 19.875V22.3125H35.4375V19.875H22.6875ZM21.5625 16.875C20.527 16.875 19.6875 17.7145 19.6875 18.75V25.3125H38.4375V18.75C38.4375 17.7145 37.598 16.875 36.5625 16.875H21.5625Z" />
<path fill-rule="evenodd" clip-rule="evenodd" d="M25.5 4.875V15.75H32.625V4.875H25.5ZM24.375 1.875C23.3395 1.875 22.5 2.71447 22.5 3.75V18.75H35.625V3.75C35.625 2.71447 34.7855 1.875 33.75 1.875H24.375Z" />
<path d="M30.9375 7.5C30.9375 8.53553 30.098 9.375 29.0625 9.375C28.027 9.375 27.1875 8.53553 27.1875 7.5C27.1875 6.46447 28.027 5.625 29.0625 5.625C30.098 5.625 30.9375 6.46447 30.9375 7.5Z" />
</svg>
