<svg width="60" height="60" viewBox="0 0 60 60"  xmlns="http://www.w3.org/2000/svg">
<path fill-rule="evenodd" clip-rule="evenodd" d="M16.5104 3.75H44.6145L48 10.5209V48.6184L47.923 48.8493C47.8131 49.179 47.716 49.4979 47.6188 49.8187L47.602 49.8743C47.5122 50.1709 47.4196 50.4769 47.3224 50.7683C47.1191 51.3782 46.8577 52.0487 46.4315 52.6453C45.4567 54.0101 43.9518 54.5625 41.8125 54.5625H19.3125C17.5033 54.5625 16.1368 53.928 15.1267 52.7496C14.2109 51.6811 13.6675 50.246 13.202 48.8493L13.125 48.6184V10.5209L16.5104 3.75ZM18.3646 6.75L16.125 11.2291V48.1291C16.5635 49.4151 16.941 50.2565 17.4045 50.7972C17.8007 51.2595 18.3092 51.5625 19.3125 51.5625H41.8125C43.4232 51.5625 43.7933 51.1774 43.9903 50.9016C44.1501 50.6779 44.2988 50.3523 44.4764 49.8196C44.5599 49.5691 44.6413 49.3003 44.7349 48.991L44.7476 48.9491C44.824 48.6969 44.9072 48.423 45 48.1355V11.2291L42.7604 6.75H18.3646Z" />
<path fill-rule="evenodd" clip-rule="evenodd" d="M14.6246 45H46.4996V48H14.6246V45Z" />
<path fill-rule="evenodd" clip-rule="evenodd" d="M30.5621 37.8746C35.1185 37.8746 38.8121 34.181 38.8121 29.6246C38.8121 25.0683 35.1185 21.3746 30.5621 21.3746C26.0058 21.3746 22.3121 25.0683 22.3121 29.6246C22.3121 34.181 26.0058 37.8746 30.5621 37.8746ZM30.5621 40.8746C36.7753 40.8746 41.8121 35.8378 41.8121 29.6246C41.8121 23.4114 36.7753 18.3746 30.5621 18.3746C24.3489 18.3746 19.3121 23.4114 19.3121 29.6246C19.3121 35.8378 24.3489 40.8746 30.5621 40.8746Z" />
</svg>
