<svg width="60" height="60" viewBox="0 0 60 60"  xmlns="http://www.w3.org/2000/svg">
<path fill-rule="evenodd" clip-rule="evenodd" d="M12.5062 21.6571C10.6781 23.0217 10.3108 25.4224 10.7298 27.9272L10.7363 27.9663L10.7402 28.0058C11.1439 32.0427 14.512 34.8266 18.1919 36.6605C19.9927 37.558 21.7752 38.1793 23.1127 38.5764C23.7796 38.7744 24.3312 38.9152 24.7132 39.0061C24.7275 39.0094 24.7415 39.0128 24.7552 39.016C27.0536 37.2837 30.8941 36.3002 36.7339 36.3002C41.3395 36.3002 44.6932 36.9344 47.0468 38.04C49.437 39.1628 50.821 40.7902 51.3439 42.6895C51.8534 44.5399 51.4928 46.4583 50.795 48.1169C50.0942 49.7828 49.0092 51.297 47.8949 52.4112L47.5434 52.7627H25.8446L25.4843 52.3123C24.202 50.7094 22.8637 48.5209 22.3323 46.243C21.9293 44.5156 21.9835 42.662 22.9371 41.0236C22.7759 40.9784 22.6064 40.9296 22.4297 40.8771C21.0041 40.4539 19.0829 39.7861 17.1214 38.8086C13.2863 36.8973 8.90778 33.5991 8.3562 28.2843C7.89543 25.4824 8.16045 21.9061 11.0705 19.7338C13.9268 17.6018 18.8677 17.2021 26.7534 19.4722C39.8486 23.2421 43.359 24.1127 47.0464 24.1127V26.5127C42.9401 26.5127 39.0471 25.5088 26.0894 21.7785C18.3425 19.5484 14.4016 20.2423 12.5062 21.6571ZM36.7339 38.7002C30.6145 38.7002 27.4067 39.8343 25.8617 41.2091C24.5195 42.4036 24.2612 43.9474 24.6695 45.6978C25.0466 47.3142 25.98 48.9853 27.0101 50.3627H46.533C47.33 49.4876 48.0838 48.3725 48.5828 47.1862C49.1546 45.8272 49.3487 44.4839 49.03 43.3265C48.7248 42.218 47.8979 41.0915 46.0264 40.2123C44.1182 39.3159 41.1594 38.7002 36.7339 38.7002Z" />
<path fill-rule="evenodd" clip-rule="evenodd" d="M28.0337 6.29999H45.4337V7.49999C45.4337 8.26799 45.1474 8.95306 44.8114 9.51888C44.4746 10.0862 44.0334 10.6226 43.6133 11.1027C43.4231 11.3201 43.2467 11.5159 43.077 11.7042C42.8387 11.9686 42.6137 12.2184 42.3823 12.4926C42.0053 12.9394 41.727 13.3217 41.557 13.6616C41.2077 14.3603 41.0305 14.7237 40.9171 15.1275C40.8724 15.2867 40.8355 15.4618 40.8075 15.675H42.3587V18.075H40.7462V29.7375H42.3581L44.4604 38.1464L42.132 38.7285L40.4843 32.1375H32.8778L30.3573 38.8588L28.1101 38.0161L31.2146 29.7375H32.7212V18.075H31.1087V15.675H32.5797C32.4609 15.0733 32.2539 14.3486 31.9104 13.6616C31.7404 13.3217 31.4621 12.9394 31.0851 12.4926C30.8537 12.2184 30.6287 11.9686 30.3904 11.7042C30.2207 11.5159 30.0443 11.3201 29.854 11.1027C29.434 10.6226 28.9928 10.0862 28.656 9.51888C28.32 8.95306 28.0337 8.26799 28.0337 7.49999V6.29999ZM35.1212 18.075V29.7375H38.3462V18.075H35.1212ZM38.3932 15.675H35.0158C34.8813 14.7992 34.5981 13.6704 34.057 12.5883C33.7582 11.9908 33.3334 11.4356 32.9194 10.9449C32.6757 10.6561 32.3915 10.34 32.1243 10.0428C31.9585 9.8583 31.7992 9.68113 31.6602 9.52228C31.4018 9.22698 31.1767 8.95516 30.9904 8.69999H42.477C42.2907 8.95516 42.0656 9.22698 41.8072 9.52228C41.6682 9.68113 41.5089 9.8583 41.3431 10.0428C41.0759 10.34 40.7917 10.6561 40.548 10.9449C40.134 11.4356 39.7091 11.9908 39.4104 12.5883C39.4009 12.6073 39.3915 12.6262 39.382 12.645C39.0677 13.2734 38.7876 13.8333 38.6064 14.4789C38.5013 14.8534 38.4333 15.2396 38.3932 15.675Z" />
</svg>
