<svg width="60" height="60" viewBox="0 0 60 60"  xmlns="http://www.w3.org/2000/svg">
<path fill-rule="evenodd" clip-rule="evenodd" d="M48.0642 7.16993L52.7775 11.8174L48.4299 23.6635L17.5279 55.0029L5.37842 43.023L36.2804 11.6836L48.0642 7.16993ZM47.3333 10.6624L37.9603 14.2526L23.8374 28.5755L24.1455 35.5668L31.7565 36.3001L45.8375 22.0198L49.2956 12.5973L47.3333 10.6624ZM29.0426 39.0525L21.2632 38.303L20.9629 31.4906L9.62095 42.9932L17.4981 50.7604L29.0426 39.0525ZM34.9476 24.5183C35.5375 25.1 35.5441 26.0497 34.9625 26.6396L30.3548 31.3125C29.7732 31.9024 28.8234 31.9091 28.2336 31.3274C27.6437 30.7457 27.637 29.796 28.2186 29.2061L32.8263 24.5332C33.408 23.9434 34.3577 23.9367 34.9476 24.5183Z" />
</svg>
