<svg width="60" height="60" viewBox="0 0 60 60"  xmlns="http://www.w3.org/2000/svg">
<path fill-rule="evenodd" clip-rule="evenodd" d="M32.7494 55.7505C39.8946 55.7505 45.6869 49.9582 45.6869 42.813C45.6869 35.6679 39.8946 29.8755 32.7494 29.8755C25.6042 29.8755 19.8119 35.6679 19.8119 42.813C19.8119 49.9582 25.6042 55.7505 32.7494 55.7505ZM32.7494 58.7505C41.5514 58.7505 48.6869 51.6151 48.6869 42.813C48.6869 34.011 41.5514 26.8755 32.7494 26.8755C23.9474 26.8755 16.8119 34.011 16.8119 42.813C16.8119 51.6151 23.9474 58.7505 32.7494 58.7505Z" />
<path fill-rule="evenodd" clip-rule="evenodd" d="M27.6873 5.23192V30.9303H24.6873V4.22621L24.9391 3.84834C25.6705 2.75126 26.897 2.06632 28.1271 1.65074C29.391 1.22372 30.8544 1.01341 32.3147 1.00061C35.141 0.975856 38.4511 1.69787 40.3729 3.61968L40.8123 4.05902V30.9303H37.8123V5.37072C36.6154 4.50886 34.5567 3.98109 32.341 4.0005C31.1295 4.01111 29.9913 4.1875 29.0873 4.49292C28.416 4.71972 27.965 4.98565 27.6873 5.23192Z" />
<path fill-rule="evenodd" clip-rule="evenodd" d="M19.9288 45.4807C19.7083 45.5471 19.3972 45.625 19.0625 45.6251L19.062 42.6251C19.01 42.6251 18.9801 42.6303 18.98 42.6302C18.98 42.6302 19.0058 42.6256 19.0636 42.6082C19.1652 42.5776 19.3071 42.5256 19.4993 42.446C19.7568 42.3395 20.0284 42.2163 20.3404 42.0748C20.517 41.9947 20.7066 41.9088 20.9139 41.8166C21.9174 41.3706 23.3791 40.7497 24.6873 40.7497C25.5662 40.7497 26.4437 41.1582 27.1047 41.5188C27.8081 41.9024 28.5572 42.4018 29.2368 42.8549L29.2693 42.8766C29.9874 43.3553 30.6318 43.7835 31.2063 44.0969C31.4895 44.2513 31.7231 44.3595 31.9103 44.4267C32.0984 44.4942 32.1823 44.4993 32.1871 44.4996C32.1898 44.4995 32.2181 44.4982 32.2772 44.4865C32.3425 44.4734 32.4299 44.4507 32.5419 44.4138C32.7692 44.339 33.0496 44.2219 33.3839 44.0614C34.0581 43.7378 34.8285 43.2985 35.6618 42.8224L35.6909 42.8057C36.4901 42.3491 37.3489 41.8584 38.13 41.4835C38.8544 41.1358 39.778 40.7499 40.6248 40.7499C41.9974 40.7499 43.4279 41.3363 44.4923 41.7726L44.6337 41.8305C45.1915 42.0591 45.6759 42.2576 46.1305 42.4058C46.6097 42.5621 46.9493 42.6251 47.1874 42.6251L47.1871 45.6251C46.4877 45.625 45.8002 45.4535 45.2008 45.2581C44.6365 45.0742 44.0555 44.8359 43.5293 44.6201C43.4927 44.6051 43.4564 44.5902 43.4203 44.5754C42.2027 44.0766 41.3201 43.7499 40.6248 43.7499C40.6248 43.7499 40.625 43.7499 40.6248 43.7499C40.6248 43.7499 40.5971 43.7506 40.5348 43.763C40.4695 43.7761 40.3821 43.7988 40.2701 43.8357C40.0429 43.9105 39.7624 44.0276 39.4281 44.1881C38.7539 44.5117 37.9835 44.951 37.1502 45.4271L37.1211 45.4438C36.322 45.9004 35.4631 46.3911 34.682 46.766C33.9576 47.1137 33.034 47.4996 32.1873 47.4996C31.3083 47.4996 30.4308 47.0911 29.7698 46.7306C29.0664 46.3469 28.3173 45.8475 27.6377 45.3944L27.6052 45.3727C26.8871 44.894 26.2427 44.4658 25.6682 44.1525C25.385 43.998 25.1514 43.8899 24.9642 43.8226C24.7759 43.755 24.6921 43.75 24.6874 43.7497C24.6873 43.7497 24.6874 43.7497 24.6874 43.7497C24.1206 43.7497 23.2383 44.0665 22.1325 44.558C21.9758 44.6276 21.811 44.7023 21.6445 44.7777C21.2997 44.9339 20.9477 45.0933 20.6466 45.218C20.414 45.3142 20.1678 45.4087 19.9288 45.4807Z" />
<path fill-rule="evenodd" clip-rule="evenodd" d="M17.7228 23.6949L23.9511 30.9613L21.6734 32.9136L16.6983 27.1093C15.5157 27.5884 14.4223 28.4165 13.4883 29.4354C12.568 30.4393 11.8571 31.57 11.4048 32.5929L20.2146 43.1647L17.9099 45.0852L8 33.1933L8.26423 32.4006C8.80333 30.7833 9.85332 28.9612 11.2768 27.4082C12.7001 25.8555 14.583 24.4799 16.8235 23.9197L17.7228 23.6949Z" />
</svg>
