<svg width="60" height="60" viewBox="0 0 60 60" xmlns="http://www.w3.org/2000/svg">
<path fill-rule="evenodd" clip-rule="evenodd" d="M33.3992 11.5078L35.3846 1.58081H38.3263L40.3117 11.5078H42.8086V15.9609H43.5352C45.2761 15.9609 46.504 16.9599 47.2281 17.8992C47.595 18.3752 47.8683 18.877 48.0536 19.3278C48.222 19.7374 48.375 20.243 48.375 20.7105V59.039H25.3359V20.7105C25.3359 19.5298 25.7168 18.3301 26.5749 17.4117C27.4506 16.4744 28.7019 15.9609 30.1758 15.9609H30.9023V11.5078H33.3992ZM36.4586 11.5078H37.2523L36.8555 9.52351L36.4586 11.5078ZM33.9023 15.9609H39.8086V14.5078H33.9023V15.9609ZM28.7669 19.4599C28.5117 19.733 28.3359 20.1581 28.3359 20.7105V56.039H45.375V20.7557C45.3721 20.751 45.3557 20.6551 45.2789 20.4685C45.1859 20.2422 45.0417 19.9768 44.852 19.7307C44.4628 19.2257 44.0208 18.9609 43.5352 18.9609H30.1758C29.4231 18.9609 29.0045 19.2056 28.7669 19.4599Z" />
<path fill-rule="evenodd" clip-rule="evenodd" d="M31.2891 23.7539C32.1175 23.7539 32.7891 24.4255 32.7891 25.2539V37.5C32.7891 38.3284 32.1175 39 31.2891 39C30.4606 39 29.7891 38.3284 29.7891 37.5V25.2539C29.7891 24.4255 30.4606 23.7539 31.2891 23.7539ZM31.2891 41.5664C32.1175 41.5664 32.7891 42.238 32.7891 43.0664V46.4062C32.7891 47.2347 32.1175 47.9062 31.2891 47.9062C30.4606 47.9062 29.7891 47.2347 29.7891 46.4062V43.0664C29.7891 42.238 30.4606 41.5664 31.2891 41.5664Z" />
<path fill-rule="evenodd" clip-rule="evenodd" d="M15.7031 22.6406C16.5316 22.6406 17.2031 23.3122 17.2031 24.1406V36.3867C17.2031 37.2151 16.5316 37.8867 15.7031 37.8867C14.8747 37.8867 14.2031 37.2151 14.2031 36.3867V24.1406C14.2031 23.3122 14.8747 22.6406 15.7031 22.6406ZM15.7031 40.4531C16.5316 40.4531 17.2031 41.1247 17.2031 41.9531V45.293C17.2031 46.1214 16.5316 46.793 15.7031 46.793C14.8747 46.793 14.2031 46.1214 14.2031 45.293V41.9531C14.2031 41.1247 14.8747 40.4531 15.7031 40.4531Z" />
<path fill-rule="evenodd" clip-rule="evenodd" d="M17.8133 11.5078L19.7987 1.58081H22.7404L24.7258 11.5078H27.2227V59.039H9.75V20.7105C9.75 19.5298 10.1309 18.3301 10.9889 17.4117C11.8647 16.4744 13.116 15.9609 14.5898 15.9609H15.3164V11.5078H17.8133ZM20.8727 11.5078H21.6664L21.2695 9.52351L20.8727 11.5078ZM18.3164 15.9609H24.2227V14.5078H18.3164V15.9609ZM24.2227 18.9609H14.5898C13.8371 18.9609 13.4185 19.2056 13.181 19.4599C12.9258 19.733 12.75 20.1581 12.75 20.7105V56.039H24.2227V18.9609Z" />
</svg>
