<svg width="60" height="60" viewBox="0 0 60 60"  xmlns="http://www.w3.org/2000/svg">
<path d="M19.7299 4.02094C14.3695 8.10832 4.97711 17.5514 5.66032 30.0705C5.83381 33.3362 8.47785 36.9045 10.7058 38.9516C13.2849 41.2761 16.5474 43.0395 19.8327 44.0997C21.5347 46.3106 22.7744 48.9195 24.2218 51.032C23.9036 52.1988 23.6294 53.412 23.4015 54.7033C23.2779 55.3798 23.7809 56.1076 24.4575 56.2313C25.1341 56.3549 25.8619 55.8518 25.9855 55.1752C26.8795 50.1095 28.4117 46.2466 30.559 43.2373C32.8744 41.5028 35.6782 40.8684 38.4756 40.5708C41.3448 40.2659 44.0901 40.3621 46.3308 39.5042V39.5244C46.3464 39.518 46.3564 39.5093 46.372 39.5042C48.6562 38.6958 49.7764 36.9197 50.5972 35.2173C51.4235 33.5034 52.1238 31.7451 53.8583 29.9462C54.4429 29.3419 54.2163 28.1751 53.4481 27.8336C50.5999 26.572 47.9898 25.0106 44.9369 24.3675C41.6864 23.6048 37.2868 24.508 34.2719 26.6646C29.4864 30.3161 26.7659 35.3117 28.1805 42.2118C27.0393 43.8832 26.0538 45.7738 25.2477 47.8931C24.0868 46.1161 23.1246 44.4031 22.3148 42.7446C25.0216 38.5208 26.9171 34.2645 27.6473 30.1516C28.9734 18.6929 25.5603 12.3227 21.6996 4.47231C21.5096 4.09419 21.1228 3.82686 20.7062 3.76369C20.3455 3.69777 20.0192 3.8836 19.7299 4.02094ZM20.0988 7.20012C23.582 14.252 26.1916 19.7263 25.0418 29.7822C24.5479 32.7952 23.2153 36.2284 21.0423 39.8118C19.1774 34.8725 18.906 30.3282 20.0576 25.7211C20.2659 24.921 19.5289 24.0279 18.704 24.08C18.1496 24.1167 17.6434 24.5447 17.5143 25.0853C16.2289 30.2274 16.5786 35.3754 18.6216 40.7966C16.3777 39.8532 14.2148 38.576 12.4688 37.0022C10.1379 34.901 8.57961 32.4254 8.28488 29.9261C7.72229 19.6273 15.0546 11.3943 20.0988 7.20012ZM44.3812 26.9521C46.4339 27.3847 48.5601 28.4563 50.9034 29.5568C49.6592 31.224 48.8114 32.8354 48.2168 34.069C47.45 35.6592 46.9758 36.5222 45.4684 37.0431C42.8884 37.7288 40.6953 37.8657 38.2083 37.9659C37.3458 38.0575 36.4463 38.1738 35.5422 38.3555C36.9797 37.3672 38.5571 36.5299 40.2801 35.8122C40.867 35.5979 41.2428 34.9209 41.1146 34.3098C40.6148 33.4282 40.1204 33.1718 39.2754 33.392C35.9003 34.7983 32.9537 36.7117 30.518 39.2788C30.2406 34.6924 32.1718 31.6016 35.8298 28.7978C38.3146 27.1164 41.3458 26.3186 44.3812 26.9521Z" />
</svg>
