<svg width="60" height="60" viewBox="0 0 60 60"  xmlns="http://www.w3.org/2000/svg">
<path d="M44.3746 26.8748H43.1248C43.1248 24.8062 41.4437 23.1246 39.3746 23.1246V20.6249C39.3746 18.5563 37.6936 16.8747 35.6244 16.8747H30.6243V11.8747C30.6243 10.4121 29.7808 9.14333 28.5491 8.5247L27.0866 3.65589C26.7687 2.5939 25.8061 1.875 24.6936 1.875H22.8064C21.6938 1.875 20.7312 2.5939 20.4125 3.65634L18.9499 8.52514C17.7188 9.14377 16.8752 10.4124 16.8752 11.8751V23.125C14.8066 23.125 13.125 24.806 13.125 26.8751V54.3748C13.125 56.4434 14.806 58.125 16.8752 58.125H39.3749C41.4435 58.125 43.1251 56.444 43.1251 54.3748L43.1247 38.125H44.3745C46.4431 38.125 48.1247 36.444 48.1247 34.3748V30.6247C48.1247 28.556 46.4432 26.8749 44.3745 26.8749L44.3746 26.8748ZM35.625 19.375C36.3125 19.375 36.8748 19.9374 36.8748 20.6249V23.1246H30.6249V19.3745L35.625 19.375ZM19.3751 11.8752C19.3751 11.1877 19.9375 10.6253 20.625 10.6253H26.8749C27.5625 10.6253 28.1248 11.1877 28.1248 11.8752V14.375H19.3751V11.8752ZM24.6938 4.37497L25.8186 8.12515H21.6814L22.8061 4.37497H24.6938ZM19.3751 16.8748H28.1248V23.1247H19.3751V16.8748ZM16.8754 25.6249H39.3751C40.0626 25.6249 40.625 26.1873 40.625 26.8748V49.3745L15.6253 49.375V26.8752C15.6253 26.1877 16.1877 25.6254 16.8752 25.6254L16.8754 25.6249ZM39.3751 55.6246H16.8754C16.1879 55.6246 15.6255 55.0622 15.6255 54.3747V51.875H40.6252V54.3747C40.6252 55.0618 40.0624 55.6246 39.3749 55.6246H39.3751ZM45.6251 34.3748C45.6251 35.0623 45.0627 35.6247 44.3752 35.6247H43.1253V29.3748H44.3752C45.0627 29.3748 45.6251 29.9372 45.6251 30.6247V34.3748Z" />
</svg>
