<svg width="60" height="60" viewBox="0 0 60 60"  xmlns="http://www.w3.org/2000/svg">
<path fill-rule="evenodd" clip-rule="evenodd" d="M39 6.01408V30.567C42.5122 30.939 44.8783 30.2337 46.4159 29.2857C48.0565 28.2742 48.8549 26.9281 49.125 26.0467V10.5078C48.511 8.33021 46.777 7.09659 44.5021 6.46017C42.6607 5.945 40.6251 5.88043 39 6.01408ZM39 33.5814C42.9067 33.9384 45.8552 33.1558 47.9903 31.8393C50.4028 30.3519 51.673 28.2424 52.0802 26.6137L52.125 26.4346V10.1279L52.0802 9.94871C51.1509 6.23151 48.2275 4.38721 45.3104 3.5711C42.4166 2.76153 39.278 2.87049 37.2534 3.20792L36 3.41682V30.375H29.1033C30.1783 29.1761 30.9815 27.6487 31.352 25.8493C32.316 21.1668 30.3021 15.0557 23.5607 8.31427L22.5 7.25361L21.4393 8.31427C14.7362 15.0174 12.3565 21.1033 13.1174 25.7874C13.4168 27.6305 14.1873 29.1728 15.281 30.375H8.8125V58.6875H39V33.5814ZM36 33.375H22.5H11.8125V55.6875H36V33.375ZM16.0786 25.3064C16.5893 28.4505 19.14 30.3751 22.5 30.375C25.0724 30.375 27.7375 28.5286 28.4136 25.2443C29.051 22.1485 27.9632 17.4086 22.4983 11.5328C16.9622 17.4462 15.5757 22.2109 16.0786 25.3064Z" />
<path fill-rule="evenodd" clip-rule="evenodd" d="M31.4997 35.4373C32.3282 35.4373 32.9997 36.1089 32.9997 36.9373V42.5623C32.9997 43.3907 32.3282 44.0623 31.4997 44.0623C30.6713 44.0623 29.9997 43.3907 29.9997 42.5623V36.9373C29.9997 36.1089 30.6713 35.4373 31.4997 35.4373ZM31.4997 45.7498C32.3282 45.7498 32.9997 46.4214 32.9997 47.2498V50.0623C32.9997 50.8907 32.3282 51.5623 31.4997 51.5623C30.6713 51.5623 29.9997 50.8907 29.9997 50.0623V47.2498C29.9997 46.4214 30.6713 45.7498 31.4997 45.7498Z" />
</svg>
