<svg width="32" height="32" viewBox="0 0 32 32"  xmlns="http://www.w3.org/2000/svg">
<path fill-rule="evenodd" clip-rule="evenodd" d="M20.4 13.6002H10.6V29.4002H20.4V13.6002ZM9 12.0002V31.0002H22V12.0002H9Z" />
<path fill-rule="evenodd" clip-rule="evenodd" d="M12.1 10.6002V11.9002H18.9V10.6002H12.1ZM11.5 9.00024C10.9477 9.00024 10.5 9.44796 10.5 10.0002V13.5002H20.5V10.0002C20.5 9.44796 20.0523 9.00024 19.5 9.00024H11.5Z" />
<path fill-rule="evenodd" clip-rule="evenodd" d="M13.6 2.60024V8.40024H17.4V2.60024H13.6ZM13 1.00024C12.4477 1.00024 12 1.44796 12 2.00024V10.0002H19V2.00024C19 1.44796 18.5523 1.00024 18 1.00024H13Z" />
<path d="M16.5 4.00024C16.5 4.55253 16.0523 5.00024 15.5 5.00024C14.9477 5.00024 14.5 4.55253 14.5 4.00024C14.5 3.44796 14.9477 3.00024 15.5 3.00024C16.0523 3.00024 16.5 3.44796 16.5 4.00024Z" />
</svg>
