<svg width="32" height="32" viewBox="0 0 32 32"  xmlns="http://www.w3.org/2000/svg">
<g clip-path="url(#clip0_104_438)">
<path fill-rule="evenodd" clip-rule="evenodd" d="M17.8129 6.13778L18.8717 0.843384H20.4407L21.4995 6.13778H22.8312V8.51278H23.2187C24.1472 8.51278 24.8021 9.04556 25.1882 9.5465C25.3839 9.80038 25.5297 10.068 25.6285 10.3084C25.7183 10.5269 25.8 10.7965 25.8 11.0459V31.4878H13.5125V11.0459C13.5125 10.4162 13.7156 9.77633 14.1732 9.28654C14.6403 8.78665 15.3077 8.51278 16.0937 8.51278H16.4812V6.13778H17.8129ZM19.4445 6.13778H19.8679L19.6562 5.07949L19.4445 6.13778ZM18.0812 8.51278H21.2312V7.73778H18.0812V8.51278ZM15.3423 10.3789C15.2062 10.5246 15.1125 10.7513 15.1125 11.0459V29.8878H24.2V11.07C24.1984 11.0675 24.1896 11.0163 24.1487 10.9168C24.0991 10.7961 24.0222 10.6546 23.921 10.5233C23.7134 10.254 23.4777 10.1128 23.2187 10.1128H16.0937C15.6922 10.1128 15.469 10.2433 15.3423 10.3789Z" />
<path fill-rule="evenodd" clip-rule="evenodd" d="M16.6875 12.6691C17.1293 12.6691 17.4875 13.0272 17.4875 13.4691V20.0003C17.4875 20.4421 17.1293 20.8003 16.6875 20.8003C16.2456 20.8003 15.8875 20.4421 15.8875 20.0003V13.4691C15.8875 13.0272 16.2456 12.6691 16.6875 12.6691ZM16.6875 22.1691C17.1293 22.1691 17.4875 22.5272 17.4875 22.9691V24.7503C17.4875 25.1921 17.1293 25.5503 16.6875 25.5503C16.2456 25.5503 15.8875 25.1921 15.8875 24.7503V22.9691C15.8875 22.5272 16.2456 22.1691 16.6875 22.1691Z" />
<path fill-rule="evenodd" clip-rule="evenodd" d="M8.37495 12.0753C8.81678 12.0753 9.17495 12.4335 9.17495 12.8753V19.4066C9.17495 19.8484 8.81678 20.2066 8.37495 20.2066C7.93312 20.2066 7.57495 19.8484 7.57495 19.4066V12.8753C7.57495 12.4335 7.93312 12.0753 8.37495 12.0753ZM8.37495 21.5753C8.81678 21.5753 9.17495 21.9335 9.17495 22.3753V24.1566C9.17495 24.5984 8.81678 24.9566 8.37495 24.9566C7.93312 24.9566 7.57495 24.5984 7.57495 24.1566V22.3753C7.57495 21.9335 7.93312 21.5753 8.37495 21.5753Z" />
<path fill-rule="evenodd" clip-rule="evenodd" d="M9.50036 6.13778L10.5592 0.843384H12.1282L13.187 6.13778H14.5187V31.4878H5.19995V11.0459C5.19995 10.4162 5.40308 9.77633 5.86071 9.28654C6.32778 8.78665 6.99516 8.51278 7.7812 8.51278H8.1687V6.13778H9.50036ZM11.132 6.13778H11.5554L11.3437 5.07949L11.132 6.13778ZM9.7687 8.51278H12.9187V7.73778H9.7687V8.51278ZM12.9187 10.1128H7.7812C7.37975 10.1128 7.1565 10.2433 7.02981 10.3789C6.8937 10.5246 6.79995 10.7513 6.79995 11.0459V29.8878H12.9187V10.1128Z" />
</g>
<defs>
<clipPath id="clip0_104_438">
<rect width="32" height="32" fill="white" transform="translate(0 0.000244141)"/>
</clipPath>
</defs>
</svg>
