<svg width="32" height="32" viewBox="0 0 32 32" fill="none" xmlns="http://www.w3.org/2000/svg">
<path fill-rule="evenodd" clip-rule="evenodd" d="M8.80557 2H23.7944L25.6 5.61115V25.9298L25.5589 26.053C25.5003 26.2288 25.4485 26.3989 25.3967 26.57L25.3877 26.5996C25.3398 26.7578 25.2904 26.921 25.2386 27.0764C25.1302 27.4017 24.9908 27.7593 24.7635 28.0775C24.2436 28.8054 23.4409 29.1 22.3 29.1H10.3C9.33508 29.1 8.60629 28.7616 8.06759 28.1331C7.57912 27.5632 7.28935 26.7979 7.04105 26.053L7 25.9298V5.61115L8.80557 2ZM9.79443 3.6L8.6 5.98885V25.6688C8.83386 26.3547 9.03522 26.8035 9.28241 27.0919C9.49371 27.3384 9.76492 27.5 10.3 27.5H22.3C23.1591 27.5 23.3564 27.2946 23.4615 27.1475C23.5467 27.0282 23.626 26.8546 23.7207 26.5705C23.7653 26.4369 23.8087 26.2935 23.8586 26.1285L23.8654 26.1062C23.9061 25.9717 23.9505 25.8256 24 25.6722V5.98886L22.8056 3.6H9.79443Z" fill="#00845B"/>
<path fill-rule="evenodd" clip-rule="evenodd" d="M7.7998 24H24.7998V25.6H7.7998V24Z" fill="#00845B"/>
<path fill-rule="evenodd" clip-rule="evenodd" d="M16.2998 20.1998C18.7299 20.1998 20.6998 18.2299 20.6998 15.7998C20.6998 13.3698 18.7299 11.3998 16.2998 11.3998C13.8698 11.3998 11.8998 13.3698 11.8998 15.7998C11.8998 18.2299 13.8698 20.1998 16.2998 20.1998ZM16.2998 21.7998C19.6135 21.7998 22.2998 19.1135 22.2998 15.7998C22.2998 12.4861 19.6135 9.7998 16.2998 9.7998C12.9861 9.7998 10.2998 12.4861 10.2998 15.7998C10.2998 19.1135 12.9861 21.7998 16.2998 21.7998Z" fill="#00845B"/>
</svg>
