<svg width="32" height="32" viewBox="0 0 32 32" fill="none" xmlns="http://www.w3.org/2000/svg">
<path fill-rule="evenodd" clip-rule="evenodd" d="M20.2998 30.2003C24.1106 30.2003 27.1998 27.1111 27.1998 23.3003C27.1998 19.4895 24.1106 16.4003 20.2998 16.4003C16.489 16.4003 13.3998 19.4895 13.3998 23.3003C13.3998 27.1111 16.489 30.2003 20.2998 30.2003ZM20.2998 31.8003C24.9942 31.8003 28.7998 27.9947 28.7998 23.3003C28.7998 18.6059 24.9942 14.8003 20.2998 14.8003C15.6054 14.8003 11.7998 18.6059 11.7998 23.3003C11.7998 27.9947 15.6054 31.8003 20.2998 31.8003Z" fill="#00845B"/>
<path fill-rule="evenodd" clip-rule="evenodd" d="M17.6 3.25702V16.9628H16V2.72065L16.1343 2.51911C16.5244 1.934 17.1785 1.56871 17.8346 1.34706C18.5087 1.11932 19.2891 1.00715 20.068 1.00033C21.5753 0.987123 23.3407 1.3722 24.3657 2.39716L24.6 2.63148V16.9628H23V3.33105C22.3617 2.87139 21.2637 2.58991 20.082 2.60027C19.4359 2.60593 18.8288 2.7 18.3467 2.86289C17.9887 2.98385 17.7481 3.12568 17.6 3.25702Z" fill="#00845B"/>
<path d="M13 24.0002C13.5 24.0001 15 23 16 23C17 23 19 25 20 25C21 25 23.5 23.0001 24.5 23.0001C25.618 23.0001 27 24.0001 28 24.0002" stroke="#00845B" stroke-width="1.6"/>
<path fill-rule="evenodd" clip-rule="evenodd" d="M12.2856 13.104L15.6074 16.9794L14.3926 18.0207L11.7392 14.925C11.1085 15.1806 10.5253 15.6222 10.0272 16.1656C9.53638 16.7011 9.15723 17.3041 8.91596 17.8496L13.6145 23.4879L12.3854 24.5122L7.1001 18.1698L7.24102 17.7471C7.52854 16.8845 8.08854 15.9127 8.84775 15.0845C9.60684 14.2563 10.611 13.5227 11.8059 13.2239L12.2856 13.104Z" fill="#00845B"/>
</svg>
