<svg width="32" height="32" viewBox="0 0 32 32" fill="none" xmlns="http://www.w3.org/2000/svg">
<path fill-rule="evenodd" clip-rule="evenodd" d="M25.6341 3.82396L28.1479 6.30263L25.8292 12.6205L9.34812 29.3349L2.86838 22.9456L19.3494 6.23123L25.6341 3.82396ZM25.2443 5.68662L20.2454 7.60141L12.7132 15.2403L12.8775 18.9689L16.9367 19.36L24.4465 11.7439L26.2909 6.71856L25.2443 5.68662ZM15.4893 20.828L11.3403 20.4282L11.1801 16.795L5.13107 22.9297L9.33222 27.0722L15.4893 20.828ZM18.6386 13.0764C18.9532 13.3867 18.9568 13.8932 18.6466 14.2078L16.1891 16.7C15.8789 17.0146 15.3724 17.0182 15.0578 16.7079C14.7432 16.3977 14.7396 15.8912 15.0498 15.5766L17.5073 13.0844C17.8175 12.7698 18.324 12.7662 18.6386 13.0764Z" fill="#00845B"/>
</svg>
