<svg width="24" height="26" viewBox="0 0 24 26" fill="none" xmlns="http://www.w3.org/2000/svg">
<path d="M9.36756 18.4999C10.373 17.6052 12.2861 16.9999 15.5915 16.9999C25.2248 16.9999 23.2582 22.3332 21.0915 24.4999H10.0915C8.78738 22.8697 7.48335 20.1766 9.36756 18.4999ZM9.36756 18.4999C9.36756 18.4999 1.59139 16.9999 1.09139 11.9999C0.617496 9.16654 1.75411 5.59981 10.0915 7.99997C17.0389 10 19.0132 10.4999 21.0915 10.4999" stroke="#00845B" stroke-width="1.6"/>
<path d="M11.5913 17.5L13.0913 13.5H14.0913M19.0913 17.5L18.0913 13.5H17.0913M17.0913 13.5V6M17.0913 13.5H14.0913M17.0913 6H14.0913M17.0913 6H18.5913M17.0913 6C17.0913 5 17.2313 4.72009 17.5913 4C18.0913 3 19.5913 2 19.5913 1H11.5913C11.5913 2 13.0913 3 13.5913 4C13.9913 4.8 14.0913 5.66667 14.0913 6M14.0913 6V13.5M14.0913 6H12.5913" stroke="#00845B" stroke-width="1.6"/>
</svg>
