<svg width="32" height="32" viewBox="0 0 32 32" fill="none" xmlns="http://www.w3.org/2000/svg">
<path d="M10.5226 2.1445C7.66371 4.32444 2.65446 9.36075 3.01883 16.0376C3.11137 17.7793 4.52152 19.6824 5.70977 20.7742C7.08527 22.0139 8.82527 22.9544 10.5775 23.5198C11.4851 24.699 12.1463 26.0904 12.9183 27.2171C12.7486 27.8394 12.6024 28.4864 12.4808 29.1751C12.4149 29.5359 12.6832 29.9241 13.044 29.99C13.4048 30.0559 13.793 29.7876 13.8589 29.4268C14.3357 26.7251 15.1529 24.6648 16.2981 23.0599C17.533 22.1348 19.0284 21.7965 20.5203 21.6378C22.0506 21.4752 23.5147 21.5264 24.7098 21.0689V21.0797C24.7181 21.0762 24.7234 21.0716 24.7317 21.0689C25.95 20.6378 26.5474 19.6905 26.9852 18.7825C27.4258 17.8685 27.7994 16.9307 28.7244 15.9713C29.0362 15.649 28.9153 15.0267 28.5057 14.8446C26.9866 14.1717 25.5945 13.339 23.9664 12.996C22.2327 12.5892 19.8863 13.0709 18.2784 14.2211C15.7261 16.1686 14.2752 18.8329 15.0296 22.513C14.421 23.4044 13.8954 24.4127 13.4654 25.543C12.8463 24.5952 12.3331 23.6817 11.9012 22.7971C13.3449 20.5444 14.3558 18.2744 14.7452 16.0809C15.4525 9.96954 13.6322 6.57211 11.5731 2.38523C11.4718 2.18357 11.2655 2.04099 11.0433 2.0073C10.8509 1.97214 10.6769 2.07126 10.5226 2.1445ZM10.7194 3.84006C12.5771 7.60106 13.9689 10.5207 13.3556 15.8838C13.0922 17.4908 12.3815 19.3218 11.2225 21.2329C10.2279 18.5987 10.0832 16.1751 10.6974 13.7179C10.8085 13.2912 10.4154 12.8149 9.97547 12.8427C9.67981 12.8622 9.40979 13.0905 9.34097 13.3788C8.65541 16.1213 8.84194 18.8669 9.93154 21.7582C8.73479 21.255 7.58123 20.5739 6.65004 19.7345C5.40685 18.6139 4.57579 17.2936 4.4186 15.9606C4.11855 10.4679 8.02911 6.07694 10.7194 3.84006ZM23.67 14.3744C24.7647 14.6052 25.8987 15.1767 27.1485 15.7636C26.4849 16.6528 26.0327 17.5122 25.7156 18.1701C25.3067 19.0183 25.0537 19.4785 24.2498 19.7563C22.8738 20.122 21.7042 20.195 20.3777 20.2485C19.9178 20.2973 19.4381 20.3593 18.9559 20.4563C19.7225 19.9292 20.5638 19.4826 21.4827 19.0998C21.7957 18.9856 21.9962 18.6245 21.9278 18.2986C21.6612 17.8284 21.3975 17.6916 20.9469 17.8091C19.1468 18.5591 17.5753 19.5796 16.2762 20.9487C16.1283 18.5026 17.1583 16.8542 19.1092 15.3588C20.4344 14.4621 22.0511 14.0366 23.67 14.3744Z" fill="#00845B"/>
</svg>
