<svg width="32" height="32" viewBox="0 0 32 32" fill="none" xmlns="http://www.w3.org/2000/svg">
<path d="M23.6665 14.3332H22.9999C22.9999 13.23 22.1033 12.3331 20.9998 12.3331V10.9999C20.9998 9.89668 20.1032 8.99984 18.9997 8.99984H16.333V6.33315C16.333 5.5531 15.8831 4.87644 15.2262 4.54651L14.4462 1.94981C14.2767 1.38341 13.7633 1 13.1699 1H12.1634C11.57 1 11.0566 1.38341 10.8867 1.95005L10.1066 4.54674C9.45003 4.87668 9.0001 5.55328 9.0001 6.33339V12.3333C7.89683 12.3333 7 13.2299 7 14.3334V28.9999C7 30.1032 7.89654 31 9.0001 31H21C22.1032 31 23 30.1035 23 28.9999L22.9998 20.3333H23.6664C24.7697 20.3333 25.6665 19.4368 25.6665 18.3332V16.3332C25.6665 15.2299 24.7697 14.3333 23.6664 14.3333L23.6665 14.3332ZM19 10.3333C19.3667 10.3333 19.6666 10.6333 19.6666 10.9999V12.3331H16.3333V10.333L19 10.3333ZM10.3334 6.33345C10.3334 5.96677 10.6334 5.66685 11 5.66685H14.3333C14.7 5.66685 14.9999 5.96679 14.9999 6.33345V7.66665H10.3334V6.33345ZM13.17 2.33332L13.7699 4.33341H11.5634L12.1633 2.33332H13.17ZM10.3334 8.9999H14.9999V12.3332H10.3334V8.9999ZM9.00021 13.6666H21.0001C21.3667 13.6666 21.6667 13.9666 21.6667 14.3332V26.3331L8.3335 26.3333V14.3335C8.3335 13.9668 8.63344 13.6669 9.0001 13.6669L9.00021 13.6666ZM21.0001 29.6664H9.00021C8.63354 29.6664 8.33361 29.3665 8.33361 28.9998V27.6666H21.6668V28.9998C21.6668 29.3663 21.3666 29.6664 21 29.6664H21.0001ZM24.3334 18.3332C24.3334 18.6999 24.0334 18.9998 23.6668 18.9998H23.0002V15.6666H23.6668C24.0334 15.6666 24.3334 15.9665 24.3334 16.3332V18.3332Z" fill="#00845B"/>
</svg>
