<svg width="32" height="32" viewBox="0 0 32 32" fill="none" xmlns="http://www.w3.org/2000/svg">
<path fill-rule="evenodd" clip-rule="evenodd" d="M20.8 3.20774V16.3027C22.6731 16.501 23.935 16.1249 24.7551 15.6193C25.6301 15.0798 26.0559 14.3619 26.2 13.8918V5.60441C25.8725 4.44301 24.9477 3.78507 23.7344 3.44565C22.7523 3.17089 21.6667 3.13646 20.8 3.20774ZM20.8 17.9103C22.8835 18.1007 24.4561 17.6833 25.5948 16.9812C26.8814 16.1879 27.5589 15.0629 27.7761 14.1942L27.7999 14.0987V5.40175L27.7761 5.30621C27.2804 3.3237 25.7213 2.34007 24.1655 1.90482C22.6221 1.47305 20.9482 1.53115 19.8684 1.71112L19.2 1.82253V16.2002H15.5217C16.0951 15.5608 16.5234 14.7462 16.721 13.7865C17.2352 11.2892 16.1611 8.02996 12.5656 4.4345L12 3.86882L11.4343 4.4345C7.85925 8.00952 6.59008 11.2553 6.9959 13.7535C7.15559 14.7365 7.56652 15.559 8.14983 16.2002H4.69995V31.3002H20.8V17.9103ZM19.2 17.8002H12H6.29995V29.7002H19.2V17.8002ZM8.5752 13.497C8.8476 15.1738 10.208 16.2003 11.9999 16.2002C13.3719 16.2002 14.7933 15.2155 15.1539 13.4639C15.4938 11.8127 14.9137 9.28479 11.9991 6.15108C9.04648 9.30488 8.30702 11.846 8.5752 13.497Z" fill="#00845B"/>
<path fill-rule="evenodd" clip-rule="evenodd" d="M16.7998 18.9C17.2416 18.9 17.5998 19.2582 17.5998 19.7V22.7C17.5998 23.1418 17.2416 23.5 16.7998 23.5C16.3579 23.5 15.9998 23.1418 15.9998 22.7V19.7C15.9998 19.2582 16.3579 18.9 16.7998 18.9ZM16.7998 24.4C17.2416 24.4 17.5998 24.7582 17.5998 25.2V26.7C17.5998 27.1418 17.2416 27.5 16.7998 27.5C16.3579 27.5 15.9998 27.1418 15.9998 26.7V25.2C15.9998 24.7582 16.3579 24.4 16.7998 24.4Z" fill="#00845B"/>
</svg>
