<svg width="24" height="24" viewBox="0 0 24 24" xmlns="http://www.w3.org/2000/svg">
<g id="Icontyl/Fill/Location">
<g id="icon">
<path id="Exclude" fill-rule="evenodd" clip-rule="evenodd" d="M12.2559 18.898C13.2764 17.9237 17 14.0804 17 9.87415C17 6.94966 14.5 5 12 5C9.5 5 7 6.94966 7 9.87415C7 14.0804 10.7236 17.9237 11.7441 18.898C11.8866 19.034 12.1134 19.034 12.2559 18.898ZM11.9999 12.0521C12.8496 12.0521 13.5383 11.4193 13.5383 10.6386C13.5383 9.85794 12.8496 9.2251 11.9999 9.2251C11.1502 9.2251 10.4614 9.85794 10.4614 10.6386C10.4614 11.4193 11.1502 12.0521 11.9999 12.0521Z"/>
</g>
</g>
</svg>
